<?xml version="1.0" standalone="no"?>
<!DOCTYPE svg PUBLIC "-//W3C//DTD SVG 20010904//EN"
 "http://www.w3.org/TR/2001/REC-SVG-20010904/DTD/svg10.dtd">
<svg version="1.0" xmlns="http://www.w3.org/2000/svg"
 width="260.000000pt" height="260.000000pt" viewBox="0 0 260.000000 260.000000"
 preserveAspectRatio="xMidYMid meet">
<metadata>
Created by potrace 1.14, written by Peter Selinger 2001-2017
</metadata>
<g transform="translate(0.000000,260.000000) scale(0.100000,-0.100000)"
fill="#000000" stroke="none">
<path d="M0 1300 l0 -1300 1300 0 1300 0 0 1300 0 1300 -1300 0 -1300 0 0
-1300z m1437 1008 c133 -49 247 -184 289 -341 19 -73 17 -230 -4 -292 -26 -77
-91 -97 -128 -40 -14 21 -14 34 -4 94 27 146 -5 273 -92 367 -114 125 -289
125 -416 1 -69 -68 -89 -169 -57 -292 34 -128 74 -195 280 -460 212 -273 244
-341 252 -530 5 -118 -9 -206 -47 -292 l-19 -44 44 -20 c114 -50 293 -74 362
-48 38 14 81 56 104 102 27 52 54 77 84 77 33 0 65 -33 65 -68 0 -82 -118
-219 -212 -247 -113 -33 -292 -12 -467 55 l-80 31 -53 -36 c-78 -51 -159 -77
-263 -82 -258 -15 -447 139 -433 353 4 72 24 106 78 136 29 16 49 19 115 15
103 -5 183 -33 366 -124 81 -40 151 -73 157 -73 20 0 54 113 59 196 7 108 -16
212 -65 293 -20 34 -100 142 -177 241 -170 219 -233 320 -271 436 -25 76 -29
105 -29 199 0 102 2 115 31 175 91 193 332 291 531 218z"/>
<path d="M783 595 c-9 -24 5 -76 32 -116 15 -24 44 -47 82 -66 52 -25 68 -28
153 -27 75 0 105 5 143 22 26 11 47 25 47 30 0 12 -263 137 -329 156 -70 21
-120 21 -128 1z"/>
</g>
</svg>
